<?xml version="1.0" encoding="utf-8"?>
<!-- Generator: Adobe Illustrator 26.0.2, SVG Export Plug-In . SVG Version: 6.00 Build 0)  -->
<svg version="1.1" id="Ebene_1" xmlns="http://www.w3.org/2000/svg" xmlns:xlink="http://www.w3.org/1999/xlink" x="0px" y="0px"
	 viewBox="0 0 236 233" style="enable-background:new 0 0 250 250;" xml:space="preserve">
<style type="text/css">
	.st1{fill:#FFFFFF;}
	.st2{fill:none;}
	.st3{fill:#2092D1;}
	.st4{fill:#D71017;}
	.st5{fill:#E34830;}
	.st6{fill:#D60066;}
	.st7{fill:#EB6808;}
	.st8{fill:#85AD28;}
</style>
<g id="Ebene_2_00000011019024440116076030000010816712102920880806_">
	<g id="Ebene_1-2">
		<g>
			<g transform="translate(-6,23)">
				<g>
					<path class="st1" d="M190.5,65.8l-38.6-8.9l-35,11.9L110,92.5L53.6,94l-4.1,21l17.7,6.8l0.9,0.3l24-4.6l10.6,10.9
						c2.5,0.3,44.2,7.5,45,6.4c0,0,27.3-9.1,27.3-9.1l18.5-29.1v-2.2L190.5,65.8z"/>
				</g>
				<path class="st2" d="M119.1,71L112,95.3l-56.1,1.5l-3.2,16.2l15.4,5.9l24.8-4.7l11.1,11.3c2.3,0.2,41.9,7.1,43,6.2
					c0,0,25.8-8.6,25.8-8.6l17.5-27.4v-1.3l-2.8-26.3l-35.6-8.2L119.1,71z"/>
				<path class="st3" d="M141.3,63.5L119.1,71l-3.7,12.7l27.4,14.7L141.3,63.5z"/>
				<path class="st4" d="M115.4,83.7l-1.8,6.2l29.2,8.5L115.4,83.7z"/>
				<path class="st5" d="M113.6,89.9l-1.6,5.5l-56.1,1.5l-3.2,16.2l12.2,4.7l77.9-19.3L113.6,89.9z"/>
				<path class="st6" d="M68.1,119c0,0,24.8-4.7,24.9-4.7l11.1,11.3c2.3,0.2,41.9,7.1,43,6.2c0,0,20.5-6.8,20.5-6.8l-24.6-26.6
					l-77.9,19.3L68.1,119z"/>
				<path class="st7" d="M167.4,124.9l5.4-1.8l17.5-27.4v-1.3l-2.8-26.3h-0.1l-44.5,30.3L167.4,124.9z"/>
				<path class="st8" d="M141.3,63.5l1.6,34.9l44.5-30.3l-35.5-8.2L141.3,63.5z"/>
				<path class="st1" d="M138.3,115c0,1,0.6,1.1,1.3,1l-0.8,7.6c-0.6,4.2,6.6,5.2,6.2,0.7c0-0.8-0.8-0.1-1.3-0.2
					c-1.9-1-0.2-2.1-0.1-8.1c1.8,0.4,2.7-1.6,2.3-3.1c-0.2-0.3-1.7-0.1-2-0.1c0.2-2.1,1-3.8-2.1-3.5c-2.4-0.3-1.7,2.1-2,3.5
					C138.8,112.7,138.4,113.2,138.3,115"/>
				<path class="st1" d="M127,121.2c-0.4-2.7,1.6-7.3,4.7-4.7c-0.5,2.8-0.3,1.7-0.7,5.9C129.6,124.8,126.9,124.4,127,121.2
					 M124.6,115c-4.2,5-0.3,17.3,6.5,10.2c0.6,3.3,7.2,2.2,5.5-1.3c-0.7,0.3-1.7,0.3-1.6-0.7c0-0.2,0.8-8,1-9.7
					c-0.2-1.1-3.7-1.1-3.7,0.6C130.2,111.7,126.2,112.3,124.6,115"/>
				<path class="st1" d="M129.4,101.8c-4.6-0.3-1.4-10.8,2.8-7.2C131.8,96,132.3,101.9,129.4,101.8 M131.2,103.5
					c0.3,4.3-4.3,5.3-7.4,3.2c-2.2,2.8,1.5,4.6,4.5,4.3c9,0.3,6.9-13.6,8.1-19.3c-0.1-1-3.7-1.1-3.7,0.6
					C121.8,84,119.1,112,131.2,103.5"/>
				<path class="st1" d="M132,77.7c-0.1,1-0.5,5.1-0.6,5.9c-1.4,2.6-4.5,2-4.3-1.1C126.7,79.7,128.8,75.2,132,77.7 M137,87.1
					c0-0.5,0.6-2.2-0.3-1.9c-2.9,0.4-0.3-5.4,0.3-16.6c-0.2-1-1.6-0.8-2.3-0.9c-1.1,0-1.7,0.3-1.7,0.9l-0.7,6.3
					c-11.9-7.1-12.3,21.6-0.9,11.5C131.7,88.6,136.1,89.4,137,87.1"/>
				<path class="st1" d="M139.7,90.9c-1.4,0-1.8,0.2-1.7,1.1c0,0,3,12.7,3,12.7c0.2,0.9,3.7,0.8,4,0c0,0,5.8-12.7,5.8-12.7
					c0.9-1.5-3.5-1.3-3.8-0.5c-1,2.5-2.5,5.5-3.3,8.3h-0.1c-0.1-2.1-1.1-6.3-1.5-8.3C142.1,90.8,140.4,90.9,139.7,90.9z"/>
				<path class="st1" d="M147.3,77.8c-0.5,2.8-0.3,1.7-0.7,5.9C141,90.4,141.2,73.1,147.3,77.8 M152.2,87c1-4.9-2.9,2.7-1.1-7.6
					c0,0,0.5-4.7,0.5-4.7c-0.2-1-3.8-1.1-3.8,0.6c-11.4-8.5-12.9,21.3-1.2,11.2C146.9,88.7,151.3,89.4,152.2,87"/>
				<path class="st1" d="M152.8,101c-0.9-0.1-2.7,0-2.6,0.9c-0.1,1.2-0.9,3.8,1.3,3.4c0.9,0.1,2.7,0,2.6-0.9
					C154.1,103.1,155.3,100.7,152.8,101"/>
				<path class="st1" d="M161.1,76.3c0.9-2,0.5-2.6-1.6-2.3c0.2-2.1,1-3.8-2.1-3.4c-2.4-0.3-1.7,2.1-2,3.4c-1.6-0.7-2.6,3.6-0.3,3.2
					l-0.8,7.6c-0.6,4.2,6.6,5.2,6.2,0.7c0-0.5-0.3-0.4-0.6-0.3c-2.9,0.2-0.9-2.1-0.7-8C159.9,77.3,160.9,77.2,161.1,76.3"/>
				<path class="st1" d="M171.7,77.8c-0.5,2.8-0.3,1.7-0.7,5.9C165.4,90.4,165.6,73.1,171.7,77.8 M176.6,87c1-4.9-2.9,2.7-1.1-7.6
					c0,0,0.5-4.7,0.5-4.7c-0.2-1-3.7-1.1-3.7,0.6c-11.4-8.5-12.9,21.3-1.2,11.2C171.3,88.7,175.7,89.4,176.6,87"/>
				<path class="st1" d="M183.7,84.9c0.1-0.9-1.6-0.9-2.4-0.9c-2.4-0.3-1.7,2-2,3.4c0,1.2,1.7,0.8,2.4,0.9
					C184.1,88.6,183.4,86.3,183.7,84.9z"/>
				<path class="st7" d="M150.1,16.4c20.7,6.9,37.9,21.8,47.6,41.3l31.1-15.6c-25.3-50-82.5-75.1-136.4-60l11.3,32.5
					C119,10.7,135.1,11.4,150.1,16.4z"/>
				<path class="st8" d="M12,58.9c-0.5,1.7-1,3.5-1.5,5.2l33.9,7.8c8-28.3,30.7-50.2,59.3-57.2L92.4-17.9
					C55.4-7.6,24.2,20.4,12,58.9z"/>
				<path class="st3" d="M44.1,178.6L68.5,154c-22.4-20-32.7-52.1-24.1-82.2L10.5,64C-0.6,105.5,12.4,149.7,44.1,178.6z"/>
				<path class="st4" d="M64.6,193.7l18.7-29.1c-5.3-3-10.2-6.5-14.7-10.5l-24.4,24.7C50.5,184.5,57.3,189.5,64.6,193.7z"/>
				<path class="st5" d="M97.6,170.9c-4.9-1.6-9.7-3.7-14.2-6.3l-18.8,29.1c18.9,10.9,40.8,16.5,62.6,15.8l0.9-34.4
					C117.8,175.6,107.4,174.2,97.6,170.9z"/>
				<path class="st6" d="M197.7,57.7c27.5,50.7-13.7,116.7-69.5,117.4l-0.9,34.4c81.4,0.3,141.2-94.4,101.5-167.4L197.7,57.7z"/>
			</g>
		</g>
	</g>
</g>
</svg>
