<svg width="30" height="30" xmlns="http://www.w3.org/2000/svg" xmlns:svg="http://www.w3.org/2000/svg">
  <path id="mastodon-square-brands" d="m26.786,32l-23.572,0a3.214,3.214 0 0 0 -3.214,3.214l0,23.572a3.214,3.214 0 0 0 3.214,3.214l23.572,0a3.214,3.214 0 0 0 3.214,-3.214l0,-23.572a3.214,3.214 0 0 0 -3.214,-3.214zm-1.5967,17.42977c-0.31288,1.60966 -2.8023,3.37126 -5.6614,3.71268c-1.4909,0.1779 -2.9588,0.3414 -4.52408,0.26961c-2.55986,-0.11728 -4.57977,-0.61101 -4.57977,-0.61101c0,0.2492 0.01536,0.48648 0.0461,0.70838c0.3328,2.5263 2.50503,2.67764 4.56268,2.74821c2.07683,0.07106 3.9261,-0.51205 3.9261,-0.51205l0.08532,1.87754s-1.45266,0.78005 -4.04043,0.92353c-1.42697,0.07843 -3.19878,-0.0359 -5.26246,-0.58212c-4.47576,-1.18465 -5.24549,-5.95559 -5.36326,-10.79649c-0.0359,-1.4373 -0.01377,-2.79259 -0.01377,-3.9261c0,-4.95007 3.24328,-6.40101 3.24328,-6.40101c1.63535,-0.75104 4.44146,-1.06687 7.35871,-1.09072l0.07168,0c2.91725,0.02385 5.7252,0.33968 7.36043,1.09072c0,0 3.24316,1.45094 3.24316,6.40101c0,0 0.04069,3.65219 -0.45229,6.18783m-3.37323,-5.80383l0,5.99371l-2.37459,0l0,-5.81753c0,-1.22633 -0.51598,-1.84878 -1.54806,-1.84878c-1.14113,0 -1.71305,0.73838 -1.71305,2.19841l0,3.18428l-2.36058,0l0,-3.18428c0,-1.46004 -0.57204,-2.19841 -1.71317,-2.19841c-1.03208,0 -1.54806,0.62244 -1.54806,1.84878l0,5.81753l-2.37459,0l0,-5.99371c0,-1.22498 0.3119,-2.19841 0.9384,-2.9186c0.64605,-0.72019 1.49213,-1.08937 2.54241,-1.08937c1.21514,0 2.13535,0.46705 2.74378,1.40128l0.59147,0.99151l0.59159,-0.99151c0.60831,-0.93423 1.52851,-1.40128 2.74378,-1.40128c1.05016,0 1.89623,0.36919 2.54241,1.08937c0.62638,0.72019 0.93828,1.69363 0.93828,2.9186" fill="#8a9097" fill-rule="evenodd" transform="translate(0 -32)"/>
</svg>