<svg id="Gruppe_12" data-name="Gruppe 12" xmlns="http://www.w3.org/2000/svg" width="69.317" height="67.789" viewBox="0 0 69.317 67.789">
  <g id="Gruppe_11" data-name="Gruppe 11">
    <path id="Pfad_40" data-name="Pfad 40" d="M718.779,876.867q0,1.118.816,1.117h.626l-.91,8.709q0,4.123,4.077,4.121a3.954,3.954,0,0,0,1.786-.418,1.6,1.6,0,0,0,.974-1.193,12.477,12.477,0,0,0,.218-1.735c0-.31-.083-.464-.25-.464-.021,0-.167.032-.44.093a3.429,3.429,0,0,1-.752.093q-.939,0-.94-1.024,0-.092.876-8.181h.91a1.479,1.479,0,0,0,1.333-.992,3.971,3.971,0,0,0,.487-1.672,2.008,2.008,0,0,0-.094-.821c-.064-.093-.2-.139-.408-.139h-1.85l.312-2.977a.8.8,0,0,0-.453-.682,2.581,2.581,0,0,0-1.333-.279h-.878q-1.881,0-1.976.992l-.314,2.945h-.628q-1.192,0-1.19,2.508" transform="translate(-701.223 -823.057)" fill="#8a9097"/>
    <path id="Pfad_41" data-name="Pfad 41" d="M715.26,882.039a9.913,9.913,0,0,1,.863-4.666,2.693,2.693,0,0,1,2.46-1.564,3.116,3.116,0,0,1,2.07.838c-.209,1.054-.335,1.731-.376,2.029s-.188,1.856-.44,4.664q-1.16,1.8-2.443,1.8-2.133,0-2.133-3.1m-2.759-7.1a12.29,12.29,0,0,0-1.941,7.22,7.883,7.883,0,0,0,1.378,4.976,4.467,4.467,0,0,0,3.7,1.75,4.744,4.744,0,0,0,2.43-.65,5.665,5.665,0,0,0,1.835-1.706q.625,2.324,3.605,2.324a3.956,3.956,0,0,0,1.788-.418,1.606,1.606,0,0,0,.972-1.193,12.586,12.586,0,0,0,.22-1.735c0-.31-.085-.464-.252-.464a3.429,3.429,0,0,0-.346.093,2.011,2.011,0,0,1-.564.093q-.939,0-.94-.992,0-.31.6-5.7l.564-5.392q0-.776-1.817-.775h-.376a2.805,2.805,0,0,0-1.444.279,2.5,2.5,0,0,0-.6,1.178,5.464,5.464,0,0,0-3.793-1.642,5.9,5.9,0,0,0-5.017,2.757" transform="translate(-710.559 -821.099)" fill="#8a9097"/>
    <path id="Pfad_42" data-name="Pfad 42" d="M717.824,872.981q-2.448,0-2.448-2.945a8.552,8.552,0,0,1,.957-4.478,3,3,0,0,1,2.68-1.535,3.242,3.242,0,0,1,2.04.806q-.1.371-.378,2.728l-.406,3.625q-1.163,1.8-2.445,1.8m2.07,1.921-.1.929a4.573,4.573,0,0,1-1.239,2.945,3.909,3.909,0,0,1-2.851,1.022,7.344,7.344,0,0,1-3.558-.961,2.848,2.848,0,0,0-.658-.31q-.628,0-.628,2.7,0,.963,1.677,1.581a11.957,11.957,0,0,0,4.124.621,6.8,6.8,0,0,0,5.564-2.341q1.928-2.337,2.43-7.113l1.284-12.614c0-.515-.6-.773-1.817-.773h-.376a2.772,2.772,0,0,0-1.427.279,2.371,2.371,0,0,0-.611,1.146,5.414,5.414,0,0,0-3.763-1.613,6.251,6.251,0,0,0-5.25,2.728,11.673,11.673,0,0,0-2.022,7.13,7.121,7.121,0,0,0,1.456,4.788,4.81,4.81,0,0,0,3.825,1.689,4.974,4.974,0,0,0,3.936-1.828" transform="translate(-710.426 -834.198)" fill="#8a9097"/>
    <path id="Pfad_43" data-name="Pfad 43" d="M720.9,859.267q-.157,1.58-.408,4.013l-.282,2.745q-1.16,1.827-2.475,1.828-2.447,0-2.445-3.1a9.111,9.111,0,0,1,.955-4.664,2.988,2.988,0,0,1,2.68-1.564,3.14,3.14,0,0,1,1.976.743m5.707,10.723a12.585,12.585,0,0,0,.22-1.735c0-.31-.085-.464-.252-.464a3.329,3.329,0,0,0-.344.093,2.037,2.037,0,0,1-.566.093q-.939,0-.94-1.022,0-.311,1.914-18.007a.8.8,0,0,0-.455-.682,2.58,2.58,0,0,0-1.333-.279h-.878q-1.881,0-1.976.992l-.784,7.189a5.237,5.237,0,0,0-3.355-1.271,6.235,6.235,0,0,0-5.252,2.759,11.939,11.939,0,0,0-2.02,7.22,7.555,7.555,0,0,0,1.459,4.974,5,5,0,0,0,4.073,1.75,4.649,4.649,0,0,0,4.124-2.386q.628,2.388,3.605,2.386a3.981,3.981,0,0,0,1.788-.418,1.606,1.606,0,0,0,.972-1.193" transform="translate(-710.526 -847.987)" fill="#8a9097"/>
    <path id="Pfad_44" data-name="Pfad 44" d="M720.563,860.485q-1.977,0-1.976.773a3.747,3.747,0,0,0,.062.467l3.449,14.443q.157.649,1.694.65h1c1.023,0,1.632-.218,1.82-.65l6.52-14.443a1.291,1.291,0,0,0,.126-.528q0-.713-1.788-.712h-.784c-1.023,0-1.63.215-1.818.65l-2.445,5.734q-.5,1.178-1.286,3.75h-.126c-.04-.35-.115-1-.22-1.936s-.188-1.545-.25-1.814l-1.254-5.734c-.1-.435-.668-.65-1.693-.65Z" transform="translate(-701.44 -834.099)" fill="#8a9097"/>
    <path id="Pfad_45" data-name="Pfad 45" d="M728.947,855.738q-.314,1.58-.376,2.031t-.44,4.664q-1.16,1.8-2.445,1.8-2.13,0-2.131-3.1a9.935,9.935,0,0,1,.861-4.664,2.7,2.7,0,0,1,2.462-1.567,3.135,3.135,0,0,1,2.07.838m5.611,10.6a12.237,12.237,0,0,0,.22-1.735c0-.31-.083-.464-.25-.464a3.435,3.435,0,0,0-.346.093,2.023,2.023,0,0,1-.564.093c-.626,0-.94-.329-.94-.992q0-.307.6-5.7l.564-5.392c0-.515-.607-.775-1.82-.775h-.376a2.8,2.8,0,0,0-1.442.279,2.508,2.508,0,0,0-.6,1.178,5.464,5.464,0,0,0-3.793-1.642,5.905,5.905,0,0,0-5.017,2.757,12.282,12.282,0,0,0-1.944,7.223,7.867,7.867,0,0,0,1.38,4.974,4.464,4.464,0,0,0,3.7,1.75,4.744,4.744,0,0,0,2.43-.65,5.708,5.708,0,0,0,1.835-1.7q.625,2.324,3.6,2.322a3.978,3.978,0,0,0,1.786-.418,1.6,1.6,0,0,0,.972-1.193" transform="translate(-701.141 -844.333)" fill="#8a9097"/>
    <path id="Pfad_46" data-name="Pfad 46" d="M728.294,865.931h-1q-1.913,0-2.005.992l-.282,2.85a.832.832,0,0,0,.361.76,2.848,2.848,0,0,0,1.395.232h1q1.913,0,2.008-.992l.282-2.85q0-.991-1.756-.992" transform="translate(-694.155 -828.047)" fill="#8a9097"/>
    <path id="Pfad_47" data-name="Pfad 47" d="M735.4,856.084a3.976,3.976,0,0,0,.487-1.674,2.021,2.021,0,0,0-.094-.821.471.471,0,0,0-.408-.139h-1.85l.314-2.977a.8.8,0,0,0-.455-.68,2.582,2.582,0,0,0-1.333-.279h-.878q-1.88,0-1.976.99l-.314,2.945h-.628q-1.192,0-1.19,2.51,0,1.115.814,1.115h.628l-.91,8.709q0,4.123,4.077,4.121a3.994,3.994,0,0,0,1.787-.418,1.607,1.607,0,0,0,.972-1.193,12.467,12.467,0,0,0,.218-1.735c0-.31-.083-.464-.25-.464-.021,0-.167.032-.438.093a3.461,3.461,0,0,1-.754.093q-.939,0-.94-1.022,0-.1.878-8.183h.908a1.479,1.479,0,0,0,1.333-.99" transform="translate(-691.804 -846.29)" fill="#8a9097"/>
    <path id="Pfad_48" data-name="Pfad 48" d="M741.968,855.738q-.314,1.58-.376,2.031t-.44,4.664q-1.16,1.8-2.445,1.8-2.13,0-2.131-3.1a9.9,9.9,0,0,1,.863-4.664,2.691,2.691,0,0,1,2.46-1.567,3.126,3.126,0,0,1,2.069.838m5.611,10.6a12.244,12.244,0,0,0,.22-1.735c0-.31-.083-.464-.25-.464a3.325,3.325,0,0,0-.344.093,2.061,2.061,0,0,1-.566.093c-.626,0-.94-.329-.94-.992q0-.307.6-5.7l.564-5.392c0-.515-.607-.775-1.82-.775h-.376a2.8,2.8,0,0,0-1.442.279,2.509,2.509,0,0,0-.6,1.178,5.464,5.464,0,0,0-3.793-1.642,5.9,5.9,0,0,0-5.017,2.757,12.282,12.282,0,0,0-1.944,7.223,7.867,7.867,0,0,0,1.38,4.974,4.467,4.467,0,0,0,3.7,1.75,4.738,4.738,0,0,0,2.43-.65,5.707,5.707,0,0,0,1.835-1.7q.625,2.324,3.605,2.322a3.993,3.993,0,0,0,1.788-.418,1.594,1.594,0,0,0,.97-1.193" transform="translate(-686.352 -844.333)" fill="#8a9097"/>
    <path id="Pfad_49" data-name="Pfad 49" d="M745.7,857.785q0-.991-1.756-.99h-1q-1.913,0-2.006.99l-.284,2.852a.835.835,0,0,0,.361.758,2.839,2.839,0,0,0,1.4.232h1q1.913,0,2.008-.99Z" transform="translate(-676.383 -838.199)" fill="#8a9097"/>
  </g>
</svg>
