<svg xmlns="http://www.w3.org/2000/svg" width="30" height="30" viewBox="0 0 30 30"><path d="M26.786,32H3.214A3.214,3.214,0,0,0,0,35.214V58.786A3.214,3.214,0,0,0,3.214,62H26.786A3.214,3.214,0,0,0,30,58.786V35.214A3.214,3.214,0,0,0,26.786,32ZM7.5,57.714A3.214,3.214,0,1,1,10.714,54.5,3.214,3.214,0,0,1,7.5,57.714Zm10.549,0h-2.3A.766.766,0,0,1,14.984,57,10.718,10.718,0,0,0,5,47.016a.766.766,0,0,1-.712-.766v-2.3a.765.765,0,0,1,.8-.765A14.544,14.544,0,0,1,18.814,56.911a.765.765,0,0,1-.765.8Zm6.9,0h-2.3a.767.767,0,0,1-.765-.739A17.6,17.6,0,0,0,5.025,40.116a.768.768,0,0,1-.739-.765v-2.3a.765.765,0,0,1,.789-.766A21.443,21.443,0,0,1,25.714,56.925a.765.765,0,0,1-.766.789Z" transform="translate(0 -32)" fill="#f6a626"/></svg>